<svg width="24" height="25" viewBox="0 0 24 25" fill="none" xmlns="http://www.w3.org/2000/svg">
<path d="M5 13.3576L16.86 13.3576L13.23 17.7176C13.0603 17.9219 12.9786 18.1851 13.003 18.4496C13.0274 18.714 13.1558 18.9579 13.36 19.1276C13.5642 19.2974 13.8275 19.379 14.0919 19.3547C14.3564 19.3303 14.6003 19.2019 14.77 18.9976L19.77 12.9976C19.8036 12.9499 19.8337 12.8998 19.86 12.8476C19.86 12.7976 19.86 12.7676 19.93 12.7176C19.9753 12.603 19.9991 12.4809 20 12.3576C19.9991 12.2343 19.9753 12.1123 19.93 11.9976C19.93 11.9476 19.93 11.9176 19.86 11.8676C19.8337 11.8155 19.8036 11.7654 19.77 11.7176L14.77 5.71764C14.676 5.60475 14.5582 5.51397 14.4252 5.45175C14.2921 5.38953 14.1469 5.3574 14 5.35763C13.7663 5.35718 13.5399 5.43855 13.36 5.58763C13.2587 5.67158 13.175 5.77468 13.1137 5.89103C13.0523 6.00738 13.0145 6.13469 13.0025 6.26566C12.9904 6.39664 13.0043 6.52871 13.0433 6.65431C13.0824 6.77992 13.1458 6.89659 13.23 6.99763L16.86 11.3576L5 11.3576C4.73479 11.3576 4.48043 11.463 4.2929 11.6505C4.10536 11.8381 4 12.0924 4 12.3576C4 12.6229 4.10536 12.8772 4.2929 13.0647C4.48043 13.2523 4.73479 13.3576 5 13.3576Z" fill="white"/>
</svg>
