<svg width="20" height="20" viewBox="0 0 20 20" fill="none" xmlns="http://www.w3.org/2000/svg">
<path d="M7.32227 12.6775L12.6794 7.32031" stroke="white" stroke-opacity="0.9" stroke-width="1.42857" stroke-linecap="round" stroke-linejoin="round"/>
<path d="M7.76869 8.21317C8.01525 8.21317 8.21512 8.0133 8.21512 7.76674C8.21512 7.52019 8.01525 7.32031 7.76869 7.32031C7.52214 7.32031 7.32227 7.52019 7.32227 7.76674C7.32227 8.0133 7.52214 8.21317 7.76869 8.21317Z" fill="white" fill-opacity="0.9" stroke="white" stroke-opacity="0.9" stroke-width="1.42857" stroke-linecap="round" stroke-linejoin="round"/>
<path d="M12.2326 12.6741C12.4791 12.6741 12.679 12.4742 12.679 12.2277C12.679 11.9811 12.4791 11.7812 12.2326 11.7812C11.986 11.7812 11.7861 11.9811 11.7861 12.2277C11.7861 12.4742 11.986 12.6741 12.2326 12.6741Z" fill="white" fill-opacity="0.9" stroke="white" stroke-opacity="0.9" stroke-width="1.42857" stroke-linecap="round" stroke-linejoin="round"/>
<path d="M3.75027 5.7126C3.75027 5.19164 3.95722 4.69202 4.3256 4.32365C4.69397 3.95527 5.1936 3.74832 5.71456 3.74832H6.60741C7.12607 3.74802 7.62357 3.54261 7.99134 3.17689L8.61634 2.55189C8.79889 2.36832 9.01592 2.22264 9.25495 2.12324C9.49399 2.02383 9.75032 1.97266 10.0092 1.97266C10.2681 1.97266 10.5244 2.02383 10.7634 2.12324C11.0025 2.22264 11.2195 2.36832 11.4021 2.55189L12.0271 3.17689C12.3948 3.54261 12.8923 3.74802 13.411 3.74832H14.3038C14.8248 3.74832 15.3244 3.95527 15.6928 4.32365C16.0612 4.69202 16.2681 5.19164 16.2681 5.7126V6.60546C16.2684 7.12412 16.4738 7.62161 16.8396 7.98939L17.4646 8.61439C17.6481 8.79693 17.7938 9.01396 17.8932 9.253C17.9926 9.49204 18.0438 9.74837 18.0438 10.0072C18.0438 10.2661 17.9926 10.5225 17.8932 10.7615C17.7938 11.0005 17.6481 11.2176 17.4646 11.4001L16.8396 12.0251C16.4738 12.3929 16.2684 12.8904 16.2681 13.409V14.3019C16.2681 14.8229 16.0612 15.3225 15.6928 15.6909C15.3244 16.0592 14.8248 16.2662 14.3038 16.2662H13.411C12.8923 16.2665 12.3948 16.4719 12.0271 16.8376L11.4021 17.4626C11.2195 17.6462 11.0025 17.7919 10.7634 17.8913C10.5244 17.9907 10.2681 18.0418 10.0092 18.0418C9.75032 18.0418 9.49399 17.9907 9.25495 17.8913C9.01592 17.7919 8.79889 17.6462 8.61634 17.4626L7.99134 16.8376C7.62357 16.4719 7.12607 16.2665 6.60741 16.2662H5.71456C5.1936 16.2662 4.69397 16.0592 4.3256 15.6909C3.95722 15.3225 3.75027 14.8229 3.75027 14.3019V13.409C3.74998 12.8904 3.54456 12.3929 3.17884 12.0251L2.55384 11.4001C2.37027 11.2176 2.2246 11.0005 2.12519 10.7615C2.02578 10.5225 1.97461 10.2661 1.97461 10.0072C1.97461 9.74837 2.02578 9.49204 2.12519 9.253C2.2246 9.01396 2.37027 8.79693 2.55384 8.61439L3.17884 7.98939C3.54456 7.62161 3.74998 7.12412 3.75027 6.60546V5.7126" stroke="white" stroke-opacity="0.9" stroke-width="1.42857" stroke-linecap="round" stroke-linejoin="round"/>
</svg>
