<svg width="36" height="36" viewBox="0 0 36 36" fill="none" xmlns="http://www.w3.org/2000/svg">
<g id="Frame 45536">
<path id="Vector" d="M33.2409 2.23896C32.7693 1.94736 32.1805 1.92096 31.6841 2.16896L22.8394 6.59172L14.9371 2.20136C14.4935 1.95496 13.9603 1.93376 13.4979 2.14336L2.93799 6.94331C2.3668 7.20331 2 7.7729 2 8.4001V32.3998C2 32.9438 2.2764 33.4506 2.73359 33.745C2.99599 33.9138 3.29719 33.9998 3.59998 33.9998C3.82478 33.9998 4.05078 33.9526 4.26198 33.8566L14.0879 29.3903L22.023 33.7986C22.4842 34.0554 23.0442 34.067 23.5154 33.831L33.1153 29.0311C33.6573 28.7599 33.9997 28.2059 33.9997 27.5999V3.60015C33.9997 3.04575 33.7125 2.53056 33.2409 2.23896ZM30.7997 26.6111L24.3998 29.8111V26.7999C24.3998 25.9163 23.6834 25.1999 22.7998 25.1999C21.9162 25.1999 21.1998 25.9163 21.1998 26.7999V29.6803L15.5999 26.5695V14.8C15.5999 13.9164 14.8835 13.2 13.9999 13.2C13.1163 13.2 12.3999 13.9164 12.3999 14.8V26.6423L5.19997 29.9151V9.43049L12.3999 6.15772V8.4001C12.3999 9.28369 13.1163 10.0001 13.9999 10.0001C14.8835 10.0001 15.5999 9.28369 15.5999 8.4001V6.23052L21.1998 9.34169V20.4C21.1998 21.2836 21.9162 22 22.7998 22C23.6834 22 24.3998 21.2836 24.3998 20.4V9.38889L30.7997 6.18892V26.6111Z" fill="url(#paint0_linear_2660_1047)"/>
</g>
<defs>
<linearGradient id="paint0_linear_2660_1047" x1="2" y1="0.463597" x2="25.4302" y2="34.0082" gradientUnits="userSpaceOnUse">
<stop stop-color="#9B7DDC"/>
<stop offset="1" stop-color="#583D92"/>
</linearGradient>
</defs>
</svg>
