<svg width="24" height="24" viewBox="0 0 24 24" fill="none" xmlns="http://www.w3.org/2000/svg">
<path d="M12 15.1281C11.8833 15.1281 11.774 15.1097 11.6719 15.073C11.5698 15.0368 11.475 14.975 11.3875 14.8875L8.2375 11.7375C8.07708 11.5771 7.99688 11.3729 7.99688 11.125C7.99688 10.8771 8.07708 10.6729 8.2375 10.5125C8.39792 10.3521 8.60558 10.2681 8.8605 10.2605C9.116 10.2535 9.32396 10.3302 9.48438 10.4906L11.125 12.1312V5.875C11.125 5.62708 11.209 5.41913 11.377 5.25113C11.5444 5.08371 11.7521 5 12 5C12.2479 5 12.4559 5.08371 12.6239 5.25113C12.7913 5.41913 12.875 5.62708 12.875 5.875V12.1312L14.5156 10.4906C14.676 10.3302 14.884 10.2535 15.1395 10.2605C15.3944 10.2681 15.6021 10.3521 15.7625 10.5125C15.9229 10.6729 16.0031 10.8771 16.0031 11.125C16.0031 11.3729 15.9229 11.5771 15.7625 11.7375L12.6125 14.8875C12.525 14.975 12.4302 15.0368 12.3281 15.073C12.226 15.1097 12.1167 15.1281 12 15.1281ZM6.75 19C6.26875 19 5.85692 18.8288 5.5145 18.4864C5.1715 18.1434 5 17.7312 5 17.25V15.5C5 15.2521 5.08371 15.0441 5.25113 14.8761C5.41913 14.7087 5.62708 14.625 5.875 14.625C6.12292 14.625 6.33087 14.7087 6.49887 14.8761C6.66629 15.0441 6.75 15.2521 6.75 15.5V17.25H17.25V15.5C17.25 15.2521 17.334 15.0441 17.502 14.8761C17.6694 14.7087 17.8771 14.625 18.125 14.625C18.3729 14.625 18.5806 14.7087 18.748 14.8761C18.916 15.0441 19 15.2521 19 15.5V17.25C19 17.7312 18.8288 18.1434 18.4864 18.4864C18.1434 18.8288 17.7312 19 17.25 19H6.75Z" fill="white"/>
</svg>
