<svg width="22" height="22" viewBox="0 0 22 22" fill="none" xmlns="http://www.w3.org/2000/svg">
<path d="M21.5 11C21.5 13.7848 20.3938 16.4555 18.4246 18.4246C16.4555 20.3938 13.7848 21.5 11 21.5C8.21523 21.5 5.54451 20.3938 3.57538 18.4246C1.60625 16.4555 0.5 13.7848 0.5 11C0.5 8.21523 1.60625 5.54451 3.57538 3.57538C5.54451 1.60625 8.21523 0.5 11 0.5C13.7848 0.5 16.4555 1.60625 18.4246 3.57538C20.3938 5.54451 21.5 8.21523 21.5 11ZM16.2894 7.02312C16.1956 6.9297 16.084 6.85614 15.9612 6.80685C15.8383 6.75755 15.7068 6.73353 15.5745 6.73623C15.4422 6.73892 15.3117 6.76828 15.191 6.82253C15.0703 6.87679 14.9617 6.95483 14.8719 7.052L10.3136 12.8598L7.5665 10.1114C7.3799 9.93756 7.13308 9.8429 6.87806 9.8474C6.62304 9.8519 6.37973 9.9552 6.19937 10.1356C6.01902 10.3159 5.91571 10.5592 5.91121 10.8143C5.90671 11.0693 6.00137 11.3161 6.17525 11.5027L9.64812 14.9769C9.74168 15.0703 9.85309 15.1438 9.9757 15.1932C10.0983 15.2426 10.2296 15.2668 10.3618 15.2644C10.494 15.2619 10.6243 15.2329 10.745 15.179C10.8657 15.1251 10.9743 15.0474 11.0643 14.9506L16.3038 8.40125C16.4824 8.21553 16.5811 7.96717 16.5787 7.70951C16.5762 7.45184 16.4728 7.20541 16.2907 7.02312H16.2894Z" fill="#38C976"/>
</svg>
